<svg width="91" height="89" viewBox="0 0 91 89" fill="none" xmlns="http://www.w3.org/2000/svg">
<path d="M39.6379 83.3493C22.8044 80.6982 9.47219 67.4535 6.7327 50.6618C6.62312 49.9795 5.97608 49.5107 5.28729 49.6253C4.60372 49.7347 4.13409 50.3805 4.24889 51.068C7.16058 68.917 21.359 83.042 39.2518 85.8337C39.9406 85.9378 40.5824 85.4691 40.6868 84.7816C40.7964 84.0993 40.3215 83.4535 39.6379 83.3493Z" fill="#54B2FE"/>
<path d="M85.0196 50.6618C82.2801 67.443 68.9271 80.7295 52.1144 83.3493C51.4308 83.4535 50.9612 84.0993 51.0655 84.7816C51.1699 85.4691 51.817 85.9378 52.5005 85.8337C70.3933 83.042 84.5917 68.917 87.5034 51.068C87.6182 50.3805 87.1486 49.7347 86.465 49.6253C85.7762 49.5107 85.1292 49.9795 85.0196 50.6618Z" fill="#54B2FE"/>
<path d="M57.7082 6.45866C72.0683 10.9326 82.8072 23.2972 85.0718 38.2139C85.1762 38.9014 85.818 39.3753 86.5068 39.2712C87.2008 39.167 87.6756 38.5264 87.5713 37.8389C85.1605 21.9743 73.7225 8.80762 58.4596 4.05762C57.7969 3.84929 57.0872 4.22429 56.8837 4.88574C56.675 5.5472 57.0455 6.25554 57.7082 6.45866Z" fill="#54B2FE"/>
<path d="M6.68052 38.2139C8.96604 23.2816 19.6735 10.9326 34.0442 6.45866C34.7069 6.25554 35.0773 5.5472 34.8738 4.88574C34.6651 4.22429 33.9554 3.84929 33.2928 4.05762C18.0299 8.80762 6.59181 21.9743 4.18105 37.8389C4.08191 38.5264 4.55676 39.167 5.24554 39.2712C5.93433 39.3753 6.57616 38.9014 6.68052 38.2139Z" fill="#54B2FE"/>
<path d="M66.2241 20.7764C80.2242 32.6357 81.1687 53.9274 68.1287 66.943C55.8401 79.2087 35.9174 79.2087 23.6236 66.943C14.3511 57.6826 11.7421 43.5576 17.3045 31.5576C19.2352 27.391 22.053 23.7243 25.5178 20.7868V20.7816L25.5543 20.7555C27.198 19.391 29.7079 20.3337 30.0419 22.4482L31.1899 29.6722C31.3673 30.7868 31.0959 31.8545 30.4019 32.7399C24.3542 40.5055 25.0325 51.5785 32.0248 58.5576C39.6745 66.193 52.0779 66.193 59.7276 58.5576C66.7198 51.5785 67.3982 40.5055 61.3504 32.7399C60.6616 31.8545 60.385 30.7868 60.5625 29.6722L61.7104 22.4482C62.0496 20.3232 64.5804 19.3857 66.2241 20.7764Z" fill="#03207E"/>
<path d="M36.1157 16.0732L38.9022 33.5993C39.3979 36.693 41.8087 39.2191 44.9291 39.2191H46.8232C49.9437 39.2191 52.3596 36.693 52.8501 33.5993L55.6366 16.0732C56.1741 12.7035 54.2747 9.1722 50.9664 8.41179C49.2705 8.02116 47.5694 7.82325 45.8788 7.82325V7.82845C44.1725 7.82845 42.4714 8.02116 40.7859 8.41179C37.4829 9.1722 35.5835 12.7035 36.1157 16.0732Z" fill="#03207E"/>
<path d="M39.6379 83.3493C22.8044 80.6982 9.47219 67.4535 6.7327 50.6618C6.62312 49.9795 5.97608 49.5107 5.28729 49.6253C4.60372 49.7347 4.13409 50.3805 4.24889 51.068C7.16058 68.917 21.359 83.042 39.2518 85.8337C39.9406 85.9378 40.5824 85.4691 40.6868 84.7816C40.7964 84.0993 40.3215 83.4535 39.6379 83.3493Z" stroke="#54B2FE" stroke-width="3"/>
<path d="M85.0196 50.6618C82.2801 67.443 68.9271 80.7295 52.1144 83.3493C51.4308 83.4535 50.9612 84.0993 51.0655 84.7816C51.1699 85.4691 51.817 85.9378 52.5005 85.8337C70.3933 83.042 84.5917 68.917 87.5034 51.068C87.6182 50.3805 87.1486 49.7347 86.465 49.6253C85.7762 49.5107 85.1292 49.9795 85.0196 50.6618Z" stroke="#54B2FE" stroke-width="3"/>
<path d="M57.7082 6.45866C72.0683 10.9326 82.8072 23.2972 85.0718 38.2139C85.1762 38.9014 85.818 39.3753 86.5068 39.2712C87.2008 39.167 87.6756 38.5264 87.5713 37.8389C85.1605 21.9743 73.7225 8.80762 58.4596 4.05762C57.7969 3.84929 57.0872 4.22429 56.8837 4.88574C56.675 5.5472 57.0455 6.25554 57.7082 6.45866Z" stroke="#54B2FE" stroke-width="3"/>
<path d="M6.68052 38.2139C8.96604 23.2816 19.6735 10.9326 34.0442 6.45866C34.7069 6.25554 35.0773 5.5472 34.8738 4.88574C34.6651 4.22429 33.9554 3.84929 33.2928 4.05762C18.0299 8.80762 6.59181 21.9743 4.18105 37.8389C4.08191 38.5264 4.55676 39.167 5.24554 39.2712C5.93433 39.3753 6.57616 38.9014 6.68052 38.2139Z" stroke="#54B2FE" stroke-width="3"/>
<path d="M66.2241 20.7764C80.2242 32.6357 81.1687 53.9274 68.1287 66.943C55.8401 79.2087 35.9174 79.2087 23.6236 66.943C14.3511 57.6826 11.7421 43.5576 17.3045 31.5576C19.2352 27.391 22.053 23.7243 25.5178 20.7868V20.7816L25.5543 20.7555C27.198 19.391 29.7079 20.3337 30.0419 22.4482L31.1899 29.6722C31.3673 30.7868 31.0959 31.8545 30.4019 32.7399C24.3542 40.5055 25.0325 51.5785 32.0248 58.5576C39.6745 66.193 52.0779 66.193 59.7276 58.5576C66.7198 51.5785 67.3982 40.5055 61.3504 32.7399C60.6616 31.8545 60.385 30.7868 60.5625 29.6722L61.7104 22.4482C62.0496 20.3232 64.5804 19.3857 66.2241 20.7764Z" stroke="#54B2FE" stroke-width="3"/>
<path d="M36.1157 16.0732L38.9022 33.5993C39.3979 36.693 41.8087 39.2191 44.9291 39.2191H46.8232C49.9437 39.2191 52.3596 36.693 52.8501 33.5993L55.6366 16.0732C56.1741 12.7035 54.2747 9.1722 50.9664 8.41179C49.2705 8.02116 47.5694 7.82325 45.8788 7.82325V7.82845C44.1725 7.82845 42.4714 8.02116 40.7859 8.41179C37.4829 9.1722 35.5835 12.7035 36.1157 16.0732Z" stroke="#54B2FE" stroke-width="3"/>
</svg>
