<svg width="393" height="87" viewBox="0 0 393 87" fill="none" xmlns="http://www.w3.org/2000/svg">
<path d="M342.593 82.0606C325.759 79.4096 312.427 66.1648 309.688 49.3731C309.578 48.6908 308.931 48.2221 308.242 48.3366C307.559 48.446 307.089 49.0918 307.204 49.7793C310.116 67.6283 324.314 81.7533 342.207 84.545C342.896 84.6491 343.537 84.1804 343.642 83.4929C343.751 82.8106 343.277 82.1648 342.593 82.0606Z" fill="#54B2FE"/>
<path d="M387.975 49.3731C385.235 66.1543 371.882 79.4408 355.069 82.0606C354.386 82.1648 353.916 82.8106 354.021 83.4929C354.125 84.1804 354.772 84.6491 355.456 84.545C373.348 81.7533 387.547 67.6283 390.459 49.7793C390.573 49.0918 390.104 48.446 389.42 48.3366C388.731 48.2221 388.084 48.6908 387.975 49.3731Z" fill="#54B2FE"/>
<path d="M360.663 5.16997C375.023 9.64393 385.762 22.0085 388.027 36.9252C388.131 37.6127 388.773 38.0866 389.462 37.9825C390.156 37.8783 390.631 37.2377 390.526 36.5502C388.116 20.6856 376.678 7.51892 361.415 2.76892C360.752 2.56059 360.042 2.93559 359.839 3.59705C359.63 4.25851 360.001 4.96684 360.663 5.16997Z" fill="#54B2FE"/>
<path d="M309.636 36.9252C311.921 21.9929 322.629 9.64393 336.999 5.16997C337.662 4.96684 338.032 4.25851 337.829 3.59705C337.62 2.93559 336.911 2.56059 336.248 2.76892C320.985 7.51892 309.547 20.6856 307.136 36.5502C307.037 37.2377 307.512 37.8783 308.201 37.9825C308.889 38.0866 309.531 37.6127 309.636 36.9252Z" fill="#54B2FE"/>
<path d="M369.179 19.4877C383.179 31.3471 384.124 52.6387 371.084 65.6543C358.795 77.92 338.873 77.92 326.579 65.6543C317.306 56.3939 314.697 42.2689 320.26 30.2689C322.19 26.1023 325.008 22.4356 328.473 19.4981V19.4929L328.509 19.4668C330.153 18.1023 332.663 19.045 332.997 21.1596L334.145 28.3835C334.322 29.4981 334.051 30.5658 333.357 31.4512C327.309 39.2168 327.988 50.2898 334.98 57.2689C342.63 64.9043 355.033 64.9043 362.683 57.2689C369.675 50.2898 370.353 39.2168 364.305 31.4512C363.617 30.5658 363.34 29.4981 363.518 28.3835L364.666 21.1596C365.005 19.0345 367.535 18.097 369.179 19.4877Z" fill="#03207E"/>
<path d="M339.071 14.7845L341.857 32.3106C342.353 35.4043 344.764 37.9304 347.884 37.9304H349.778C352.899 37.9304 355.315 35.4043 355.805 32.3106L358.592 14.7845C359.129 11.4148 357.23 7.88351 353.921 7.12309C352.226 6.73247 350.525 6.53455 348.834 6.53455V6.53976C347.128 6.53976 345.426 6.73247 343.741 7.12309C340.438 7.88351 338.539 11.4148 339.071 14.7845Z" fill="#03207E"/>
<path d="M342.593 82.0606C325.759 79.4096 312.427 66.1648 309.688 49.3731C309.578 48.6908 308.931 48.2221 308.242 48.3366C307.559 48.446 307.089 49.0918 307.204 49.7793C310.116 67.6283 324.314 81.7533 342.207 84.545C342.896 84.6491 343.537 84.1804 343.642 83.4929C343.751 82.8106 343.277 82.1648 342.593 82.0606Z" stroke="#54B2FE" stroke-width="3"/>
<path d="M387.975 49.3731C385.235 66.1543 371.882 79.4408 355.069 82.0606C354.386 82.1648 353.916 82.8106 354.021 83.4929C354.125 84.1804 354.772 84.6491 355.456 84.545C373.348 81.7533 387.547 67.6283 390.459 49.7793C390.573 49.0918 390.104 48.446 389.42 48.3366C388.731 48.2221 388.084 48.6908 387.975 49.3731Z" stroke="#54B2FE" stroke-width="3"/>
<path d="M360.663 5.16997C375.023 9.64393 385.762 22.0085 388.027 36.9252C388.131 37.6127 388.773 38.0866 389.462 37.9825C390.156 37.8783 390.631 37.2377 390.526 36.5502C388.116 20.6856 376.678 7.51892 361.415 2.76892C360.752 2.56059 360.042 2.93559 359.839 3.59705C359.63 4.25851 360.001 4.96684 360.663 5.16997Z" stroke="#54B2FE" stroke-width="3"/>
<path d="M309.636 36.9252C311.921 21.9929 322.629 9.64393 336.999 5.16997C337.662 4.96684 338.032 4.25851 337.829 3.59705C337.62 2.93559 336.911 2.56059 336.248 2.76892C320.985 7.51892 309.547 20.6856 307.136 36.5502C307.037 37.2377 307.512 37.8783 308.201 37.9825C308.889 38.0866 309.531 37.6127 309.636 36.9252Z" stroke="#54B2FE" stroke-width="3"/>
<path d="M369.179 19.4877C383.179 31.3471 384.124 52.6387 371.084 65.6543C358.795 77.92 338.873 77.92 326.579 65.6543C317.306 56.3939 314.697 42.2689 320.26 30.2689C322.19 26.1023 325.008 22.4356 328.473 19.4981V19.4929L328.509 19.4668C330.153 18.1023 332.663 19.045 332.997 21.1596L334.145 28.3835C334.322 29.4981 334.051 30.5658 333.357 31.4512C327.309 39.2168 327.988 50.2898 334.98 57.2689C342.63 64.9043 355.033 64.9043 362.683 57.2689C369.675 50.2898 370.353 39.2168 364.305 31.4512C363.617 30.5658 363.34 29.4981 363.518 28.3835L364.666 21.1596C365.005 19.0345 367.535 18.097 369.179 19.4877Z" stroke="#54B2FE" stroke-width="3"/>
<path d="M339.071 14.7845L341.857 32.3106C342.353 35.4043 344.764 37.9304 347.884 37.9304H349.778C352.899 37.9304 355.315 35.4043 355.805 32.3106L358.592 14.7845C359.129 11.4148 357.23 7.88351 353.921 7.12309C352.226 6.73247 350.525 6.53455 348.834 6.53455V6.53976C347.128 6.53976 345.426 6.73247 343.741 7.12309C340.438 7.88351 338.539 11.4148 339.071 14.7845Z" stroke="#54B2FE" stroke-width="3"/>
<path d="M0.970703 84.9817H24.7443V84.5234C24.5147 83.1484 21.7596 74.664 21.7596 66.8671V20.5494C21.7596 12.7525 24.5147 4.26815 24.7443 2.89315V2.43481H0.970703V2.89315C1.2003 4.26815 3.95545 12.7525 3.95545 20.5494V66.8671C3.95545 74.664 1.2003 83.1484 0.970703 84.5234V84.9817Z" fill="#03207E"/>
<path d="M108.218 43.6275H80.7653V44.0859C81.3445 45.5754 87.7732 53.9452 87.7732 61.7421V77.789C83.9848 79.8515 79.7321 81.2317 75.3698 81.2317C61.6984 81.1171 52.5093 66.0963 52.5093 43.8567C52.5093 21.7265 61.354 6.59627 74.5662 6.71086C87.4288 6.82544 98.6842 23.6744 101.904 28.3775H102.937V7.74211C92.7147 3.6119 82.1481 1.43481 73.9922 1.43481C50.3282 1.43481 32.1797 20.0077 32.1797 43.8567C32.1797 68.9609 49.9838 86.3879 72.2702 86.3879C85.4772 86.3879 98.5694 81.4609 105.577 78.0182V61.7421C105.577 53.9452 107.988 45.5754 108.218 44.0859V43.6275Z" fill="#03207E"/>
<path d="M189.881 2.43481H172.885V3.00773C173.344 5.18482 178.74 17.2265 178.74 28.4609V62.2838L138.081 2.43481H116.373V2.89315C116.833 4.49731 121.195 13.6692 121.195 22.1536V58.9556C121.195 70.19 115.914 82.2317 115.335 84.4088V84.9817H132.335V84.4088C131.876 82.2317 126.481 70.19 126.481 58.9556V17.3411L172.656 84.9817H184.026V28.4609C184.026 17.2265 189.307 5.18482 189.881 3.00773V2.43481Z" fill="#03207E"/>
<path d="M196.487 84.9817H220.261V84.5234C220.031 83.1484 217.276 74.664 217.276 66.8671V20.5494C217.276 12.7525 220.031 4.26815 220.261 2.89315V2.43481H196.487V2.89315C196.717 4.26815 199.472 12.7525 199.472 20.5494V66.8671C199.472 74.664 196.717 83.1484 196.487 84.5234V84.9817Z" fill="#03207E"/>
<path d="M299.68 2.43481H227.545V25.7109H228.004C229.726 24.6796 240.528 7.59627 250.176 7.59627H254.768V66.8671C254.768 74.664 252.013 83.1484 251.783 84.5234V84.9817H275.557V84.5234C275.327 83.1484 272.572 74.664 272.572 66.8671V7.59627H276.934C286.812 7.59627 297.499 24.6796 299.106 25.7109H299.68V2.43481Z" fill="#03207E"/>
</svg>
